# File created by Blade
# Date/Time:  Fri Jan 16 14:33:41 2015
# Frame Rate: 120.000 fps
#------------------------------------------------------
:FULLY-SPECIFIED
:DEGREES
2882
root 19.531741 35.728999 -23.430708 -175.409306 -5.780828 -179.399519
Spine -12.884578 9.284413 -3.775178
Head 4.895489 -23.513300 3.017236
LeftShoulder 1.232851 -15.926932 -11.222067
LeftArm -10.038972 32.959320 -75.808805
LeftForeArm 2.238885 -0.000000 5.065389
LeftHand -1.171085 -0.000000 -2.960518
LeftHandThumb1 -26.253704 0.000000 33.147579
RightShoulder 15.234962 -4.087917 -8.864961
RightArm 67.496833 9.111224 14.993767
RightForeArm -41.481441 0.000000 10.151866
RightHand -5.257538 -0.000000 6.888310
RightHandThumb1 -24.326973 -0.000000 -32.862282
LeftUpLeg 1.364909 7.865772 1.305517
LeftLeg -4.996543 -0.000000 0.000000
LeftFoot -18.325333 24.806180 -14.122482
LeftToeBase 25.221212 -0.000000 -0.000000
RightUpLeg 1.701719 -15.359192 3.070529
RightLeg -3.786490 -0.000000 0.000000
RightFoot -20.013067 -24.581485 15.146809
RightToeBase 23.134893 -0.000000 -0.000000
2883
root 19.530065 35.729344 -23.436678 -175.409472 -5.767138 -179.393625
Spine -12.940051 9.276923 -3.737414
Head 5.046643 -23.522518 2.898138
LeftShoulder 1.206359 -15.915418 -11.250439
LeftArm -10.036973 32.962143 -75.763055
LeftForeArm 2.305569 -0.000000 5.036557
LeftHand -1.121688 -0.000000 -3.174315
LeftHandThumb1 -26.253704 0.000000 33.147579
RightShoulder 15.243487 -4.063994 -8.885178
RightArm 67.515435 9.048435 14.969788
RightForeArm -41.504119 0.000000 10.160905
RightHand -5.298181 -0.000000 6.913773
RightHandThumb1 -24.326973 -0.000000 -32.862282
LeftUpLeg 1.376873 7.865678 1.311415
LeftLeg -4.993535 -0.000000 0.000000
LeftFoot -18.336503 24.802554 -14.130205
LeftToeBase 25.238259 -0.000000 -0.000000
RightUpLeg 1.703720 -15.416536 3.074544
RightLeg -3.781441 -0.000000 0.000000
RightFoot -19.984675 -24.486742 15.194073
RightToeBase 23.030836 -0.000000 -0.000000
2884
root 19.534447 35.729428 -23.443332 -175.409797 -5.732563 -179.398864
Spine -12.992717 9.304804 -3.755513
Head 5.181405 -23.530066 2.844210
LeftShoulder 1.221942 -15.969493 -11.255463
LeftArm -10.122625 32.924915 -75.752900
LeftForeArm 2.432555 -0.000000 5.045121
LeftHand -1.171636 -0.000000 -3.168265
LeftHandThumb1 -26.253704 0.000000 33.147579
RightShoulder 15.230564 -4.052286 -8.880007
RightArm 67.519491 9.003716 15.002786
RightForeArm -41.600769 0.000000 10.216915
RightHand -5.349836 -0.000000 6.985517
RightHandThumb1 -24.326973 -0.000000 -32.862282
LeftUpLeg 1.359220 8.067407 1.296784
LeftLeg -4.948314 -0.000000 0.000000
LeftFoot -18.347273 24.710011 -14.119776
LeftToeBase 25.212148 -0.000000 -0.000000
RightUpLeg 1.725519 -15.361742 3.071405
RightLeg -3.800979 -0.000000 0.000000
RightFoot -20.003650 -24.549841 15.153718
RightToeBase 23.151905 -0.000000 -0.000000
2885
root 19.536149 35.729560 -23.450374 -175.410842 -5.709335 -179.404178
Spine -13.051784 9.307589 -3.760365
Head 5.334503 -23.533830 2.765609
LeftShoulder 1.200434 -15.931464 -11.257924
LeftArm -10.095652 32.910813 -75.684778
LeftForeArm 2.346472 0.000000 5.065956
LeftHand -1.262842 -0.000000 -3.014027
LeftHandThumb1 -26.253704 0.000000 33.147579
RightShoulder 15.247879 -4.016482 -8.886034
RightArm 67.474707 8.921450 15.054182
RightForeArm -41.716697 -0.000000 10.318126
RightHand -5.402016 0.000000 7.096387
RightHandThumb1 -24.326973 -0.000000 -32.862282
LeftUpLeg 1.295882 8.367563 1.281951
LeftLeg -4.810655 -0.000000 0.000000
LeftFoot -18.368728 24.486536 -14.067269
LeftToeBase 25.223923 -0.000000 -0.000000
RightUpLeg 1.742090 -15.357753 3.067059
RightLeg -3.814698 -0.000000 0.000000
RightFoot -20.001907 -24.543396 15.146331
RightToeBase 23.185563 -0.000000 -0.000000
